<?xml version="1.0" encoding="utf-8"?>
<svg width="40px" height="40px" viewBox="0 0 40 40" fill="none" xmlns="http://www.w3.org/2000/svg">
  <g filter="url(#filter0_d_0_117)" transform="matrix(1, 0, 0, 1, -8, -4)">
    <path d="M28 44C39.0457 44 48 35.0457 48 24C48 12.9543 39.0457 4 28 4C16.9543 4 8 12.9543 8 24C8 35.0457 16.9543 44 28 44Z" fill="#FF3A62"/>
  </g>
  <path fill-rule="evenodd" clip-rule="evenodd" d="M 22.519 22.896 L 20.921 22.896 L 22.978 25.328 L 21.809 25.328 L 18.752 21.931 L 19.543 21.931 L 21.598 21.931 C 24.182 21.931 26.276 19.907 26.276 17.426 C 26.276 16.357 25.887 15.366 25.238 14.595 C 24.455 13.431 25.359 12.578 26.161 12.578 C 25.958 11.669 24.846 11.601 24.846 11.601 C 24.723 11.243 24.408 10.714 23.798 10.714 L 22.202 10.714 C 22.181 10.714 22.16 10.717 22.14 10.72 C 22.123 10.723 22.106 10.726 22.09 10.726 C 21.305 10.81 20.544 11.383 21.304 12.512 L 21.305 12.512 C 21.324 12.539 22.392 14.021 22.392 15.544 C 22.392 18.142 20.199 20.424 17.494 20.424 L 12.511 20.424 L 11.55 20.424 L 6.429 20.424 C 6.429 21.268 7.093 21.931 7.913 21.931 L 11.145 21.931 L 17.21 21.931 L 20.077 25.328 L 11.145 25.328 L 11.145 27.838 L 29.809 27.838 L 29.809 25.328 L 24.712 25.328 L 22.519 22.896 Z M 20.297 18.476 C 21.081 17.687 21.531 16.621 21.531 15.555 C 21.531 14.269 20.583 12.937 20.573 12.924 L 20.567 12.914 L 20.561 12.904 C 20.35 12.592 20.23 12.318 20.173 12.066 L 13.036 19.727 L 17.362 19.727 C 18.457 19.727 19.5 19.278 20.297 18.476 Z M 7.844 27.838 L 10.204 27.838 L 10.204 25.303 L 7.844 25.303 L 7.844 27.838 Z M 30.824 27.857 L 30.824 25.323 L 32.857 26.535 L 30.824 27.857 Z M 23.094 12.382 C 23.327 12.382 23.516 12.2 23.516 11.976 C 23.516 11.752 23.327 11.57 23.094 11.57 C 22.86 11.57 22.671 11.752 22.671 11.976 C 22.671 12.2 22.86 12.382 23.094 12.382 Z" fill="white"/>
  <defs>
    <filter id="filter0_d_0_117" x="0" y="0" width="56" height="56" filterUnits="userSpaceOnUse" color-interpolation-filters="sRGB">
      <feFlood flood-opacity="0" result="BackgroundImageFix"/>
      <feColorMatrix in="SourceAlpha" type="matrix" values="0 0 0 0 0 0 0 0 0 0 0 0 0 0 0 0 0 0 127 0" result="hardAlpha"/>
      <feOffset dy="4"/>
      <feGaussianBlur stdDeviation="4"/>
      <feColorMatrix type="matrix" values="0 0 0 0 0 0 0 0 0 0 0 0 0 0 0 0 0 0 0.08 0"/>
      <feBlend mode="normal" in2="BackgroundImageFix" result="effect1_dropShadow_0_117"/>
      <feBlend mode="normal" in="SourceGraphic" in2="effect1_dropShadow_0_117" result="shape"/>
    </filter>
  </defs>
</svg>